<svg width="64" height="64" viewBox="0 0 64 64" fill="none" xmlns="http://www.w3.org/2000/svg">
  <circle cx="32" cy="32" r="30" fill="#071528"/>
  <circle cx="32" cy="32" r="28" stroke="#1479FF" stroke-width="3"/>
  <circle cx="45" cy="18" r="10" fill="#FFD24A" fill-opacity="0.95"/>
  <path d="M18 43V21h11.2c4.8 0 7.8 2.8 7.8 6.9 0 2.8-1.4 5-3.8 6.1L39 43h-6.4l-5-8h-3.9v8H18Zm5.7-12.7h4.8c1.9 0 3-1 3-2.6 0-1.7-1.1-2.7-3-2.7h-4.8v5.3Z" fill="#FFFFFF"/>
  <path d="M39.4 43V21H45v8.4h7.2V21H58v22h-5.8v-8.7H45V43h-5.6Z" fill="#FFD24A"/>
</svg>
